
<svg xmlns="http://www.w3.org/2000/svg" version="1.1" xmlns:xlink="http://www.w3.org/1999/xlink" preserveAspectRatio="none" x="0px" y="0px" width="32px" height="32px" viewBox="0 0 32 32">
<defs>
<g id="Layer1_0_FILL">
<path fill="#FFFFFF" stroke="none" d="
M 29.85 2.15
Q 28.65 1 26.95 1
L 5.05 1
Q 3.4 1 2.15 2.15 1 3.4 1 5.05
L 1 26.95
Q 1 28.65 2.15 29.85 3.4 31 5.05 31
L 26.95 31
Q 28.65 31 29.85 29.85 31 28.65 31 26.95
L 31 5.05
Q 31 3.4 29.85 2.15
M 16 19.5
L 12.7 24 7.2 24 13.1 16.4 7.25 8.9 12.85 8.9 16.05 13.35 19.25 8.9 24.8 8.9 18.95 16.35 24.85 24 19.25 24 16 19.5 Z"/>
</g>

<g id="Layer0_0_FILL">
<path fill="#000000" stroke="none" d="
M 19.25 8.9
L 16.05 13.35 12.85 8.9 7.25 8.9 13.1 16.4 7.2 24 12.7 24 16 19.5 19.25 24 24.85 24 18.95 16.35 24.8 8.9 19.25 8.9 Z"/>
</g>
</defs>

<g transform="matrix( 1, 0, 0, 1, 0,0) ">
<use xlink:href="#Layer1_0_FILL"/>
</g>

<g transform="matrix( 1, 0, 0, 1, 0,0) ">
<use xlink:href="#Layer0_0_FILL"/>
</g>
</svg>
