
<svg xmlns="http://www.w3.org/2000/svg" version="1.1" xmlns:xlink="http://www.w3.org/1999/xlink" preserveAspectRatio="none" x="0px" y="0px" width="37px" height="37px" viewBox="0 0 37 37">
<defs>
<g id="Layer7_0_FILL">
<path fill="#FFFFFF" stroke="none" d="
M 34.65 2.35
Q 33.25 1 31.3 1
L 5.75 1
Q 3.8 1 2.35 2.35 1 3.8 1 5.75
L 1 31.3
Q 1 33.25 2.35 34.65 3.8 36 5.75 36
L 31.3 36
Q 33.25 36 34.65 34.65 36 33.25 36 31.3
L 36 5.75
Q 36 3.8 34.65 2.35 Z"/>
</g>

<g id="Layer0_0_FILL">
<path fill="#000000" stroke="none" d="
M 15.85 11.5
L 21.2 11.5 21.2 7.7 15.85 7.7 15.85 11.5
M 16 29.35
L 21.05 29.35 21.05 13.8 16 13.8 16 29.35 Z"/>
</g>
</defs>

<g transform="matrix( 1, 0, 0, 1, 0,0) ">
<use xlink:href="#Layer7_0_FILL"/>
</g>

<g transform="matrix( 1, 0, 0, 1, 0,0) ">
<use xlink:href="#Layer0_0_FILL"/>
</g>
</svg>
