
<svg xmlns="http://www.w3.org/2000/svg" version="1.1" xmlns:xlink="http://www.w3.org/1999/xlink" preserveAspectRatio="none" x="0px" y="0px" width="37px" height="37px" viewBox="0 0 37 37">
<defs>
<g id="Layer11_0_FILL">
<path fill="#FFFFFF" stroke="none" d="
M 34.65 2.35
Q 33.25 1 31.3 1
L 5.75 1
Q 3.8 1 2.35 2.35 1 3.8 1 5.75
L 1 31.3
Q 1 33.25 2.35 34.65 3.8 36 5.75 36
L 31.3 36
Q 33.25 36 34.65 34.65 36 33.25 36 31.3
L 36 5.75
Q 36 3.8 34.65 2.35 Z"/>
</g>

<g id="Layer1_0_FILL">
<path fill="#000000" stroke="none" d="
M 8.8 11.7
L 3.4 11.7
Q 2.8 11.7 2.8 12.45
L 2.8 18.8
Q 2.8 19.55 3.4 19.55
L 8.8 19.55
Q 9.35 19.55 9.35 18.8
L 9.35 12.45
Q 9.35 12.15 9.2 11.9 9.05 11.7 8.8 11.7 Z"/>
</g>

<g id="Layer1_1_FILL">
<path fill="#000000" stroke="none" d="
M 15.1 6.6
L 9.35 11.95 9.35 19.4 15.1 24.15 15.1 6.6 Z"/>
</g>

<path id="Layer1_0_1_STROKES" stroke="#000000" stroke-width="1" stroke-linejoin="miter" stroke-linecap="butt" stroke-miterlimit="10" fill="none" d="
M 4.8665283203125 13.89952392578125
Q 4.166552734375 13.89952392578125 4.166552734375 14.774493408203124
L 4.166552734375 22.182568359375
Q 4.166552734375 23.057537841796876 4.8665283203125 23.057537841796876
L 11.166308593750001 23.057537841796876
Q 11.807952880859375 23.057537841796876 11.807952880859375 22.182568359375
L 11.807952880859375 14.774493408203124
Q 11.807952880859375 14.424505615234375 11.632958984375 14.13284912109375 11.457965087890626 13.89952392578125 11.166308593750001 13.89952392578125
L 4.8665283203125 13.89952392578125 Z"/>

<path id="Layer1_1_1_STROKES" stroke="#000000" stroke-width="1" stroke-linejoin="miter" stroke-linecap="butt" stroke-miterlimit="10" fill="none" d="
M 18.516052246093746 7.9497314453125
L 18.516052246093746 28.424017333984374 11.807952880859375 22.8825439453125 11.807952880859375 14.191180419921874 18.516052246093746 7.9497314453125 Z"/>

<path id="Layer1_2_1_STROKES" stroke="#000000" stroke-width="1" stroke-linejoin="miter" stroke-linecap="butt" stroke-miterlimit="10" fill="none" d="
M 22.48258056640625 13.957855224609375
L 23.882531738281248 16.524432373046874
Q 24.757501220703123 19.73265380859375 22.48258056640625 22.99920654296875"/>

<path id="Layer1_3_1_STROKES" stroke="#000000" stroke-width="1" stroke-linejoin="miter" stroke-linecap="butt" stroke-miterlimit="10" fill="none" d="
M 25.1658203125 10.16632080078125
L 26.09912109375 11.391278076171876
Q 27.090753173828123 12.96622314453125 27.615734863281247 14.83282470703125 29.24901123046875 20.607623291015624 25.1658203125 26.49908447265625"/>

<path id="Layer1_4_1_STROKES" stroke="#000000" stroke-width="1" stroke-linejoin="miter" stroke-linecap="butt" stroke-miterlimit="10" fill="none" d="
M 28.024053955078124 5.03316650390625
Q 30.765625 7.891400146484375 32.107244873046874 12.674566650390625 34.79048461914063 22.29923095703125 28.024053955078124 31.9822265625"/>
</defs>

<g transform="matrix( 1, 0, 0, 1, 0,0) ">
<use xlink:href="#Layer11_0_FILL"/>
</g>

<g transform="matrix( 1.1666259765625, 0, 0, 1.1666259765625, 0.9,0.25) ">
<use xlink:href="#Layer1_0_FILL"/>

<use xlink:href="#Layer1_0_1_STROKES" transform="matrix( 0.857177734375, 0, 0, 0.857177734375, -0.75,-0.2) "/>
</g>

<g transform="matrix( 1.1666259765625, 0, 0, 1.1666259765625, 0.9,0.25) ">
<use xlink:href="#Layer1_1_FILL"/>

<use xlink:href="#Layer1_1_1_STROKES" transform="matrix( 0.857177734375, 0, 0, 0.857177734375, -0.75,-0.2) "/>
</g>

<g transform="matrix( 1.1666259765625, 0, 0, 1.1666259765625, 0.9,0.25) ">
<use xlink:href="#Layer1_2_1_STROKES" transform="matrix( 0.857177734375, 0, 0, 0.857177734375, -0.75,-0.2) "/>
</g>

<g transform="matrix( 1.1666259765625, 0, 0, 1.1666259765625, 0.9,0.25) ">
<use xlink:href="#Layer1_3_1_STROKES" transform="matrix( 0.857177734375, 0, 0, 0.857177734375, -0.75,-0.2) "/>
</g>

<g transform="matrix( 1.1666259765625, 0, 0, 1.1666259765625, 0.9,0.25) ">
<use xlink:href="#Layer1_4_1_STROKES" transform="matrix( 0.857177734375, 0, 0, 0.857177734375, -0.75,-0.2) "/>
</g>
</svg>
