
<svg xmlns="http://www.w3.org/2000/svg" version="1.1" xmlns:xlink="http://www.w3.org/1999/xlink" preserveAspectRatio="none" x="0px" y="0px" width="32px" height="32px" viewBox="0 0 32 32">
<defs>
<g id="Layer0_0_FILL">
<path fill="#000000" stroke="none" d="
M 31 8.5
Q 31 1 23.5 1
L 8.5 1
Q 1 1 1 8.5
L 1 23.5
Q 1 31 8.5 31
L 23.5 31
Q 31 31 31 23.5
L 31 8.5
M 14.3 7.15
L 18.9 7.15 18.9 10.4 14.3 10.4 14.3 7.15
M 14.45 12.35
L 18.75 12.35 18.75 25.7 14.45 25.7 14.45 12.35 Z"/>

<path fill="#FFFFFF" stroke="none" d="
M 18.75 12.35
L 14.45 12.35 14.45 25.7 18.75 25.7 18.75 12.35
M 18.9 7.15
L 14.3 7.15 14.3 10.4 18.9 10.4 18.9 7.15 Z"/>
</g>
</defs>

<g transform="matrix( 1, 0, 0, 1, 0,0) ">
<use xlink:href="#Layer0_0_FILL"/>
</g>
</svg>
