
<svg xmlns="http://www.w3.org/2000/svg" version="1.1" xmlns:xlink="http://www.w3.org/1999/xlink" preserveAspectRatio="none" x="0px" y="0px" width="32px" height="32px" viewBox="0 0 32 32">
<defs>
<g id="fonts_shape_25012_0_Layer0_0_FILL">
<path fill="#FFFFFF" stroke="none" d="
M 10 -5
Q 10 -10 5 -10
L -5 -10
Q -10 -10 -10 -5
L -10 5
Q -10 10 -5 10
L 5 10
Q 10 10 10 5
L 10 -5 Z"/>
</g>

<g id="Layer0_0_MEMBER_1_MEMBER_0_FILL">
<path fill="#000000" stroke="none" d="
M 6.95 22.75
L 20.3 9.35 18 7.05 4.65 20.45 6.95 22.75 Z"/>
</g>

<g id="Layer0_0_MEMBER_2_FILL">
<path fill="#FFFFFF" stroke="none" d="
M 22.1 10.65
Q 22.1 8.35 20.45 6.7 18.85 5.1 16.55 5.1 14.25 5.1 12.6 6.7 11 8.35 11 10.65 11 13 12.6 14.6 14.25 16.2 16.55 16.2 18.85 16.2 20.45 14.6 22.1 13 22.1 10.65 Z"/>
</g>

<path id="Layer0_0_MEMBER_2_1_STROKES" stroke="#000000" stroke-width="3" stroke-linejoin="round" stroke-linecap="round" fill="none" d="
M 25.305630493164063 12.933369445800782
Q 25.305630493164063 15.544488525390625 23.472291564941404 17.322271728515627 21.694508361816407 19.100054931640624 19.13894500732422 19.100054931640624 16.58338165283203 19.100054931640624 14.750042724609374 17.322271728515627 12.972259521484375 15.544488525390625 12.972259521484375 12.933369445800782 12.972259521484375 10.377806091308592 14.750042724609374 8.544467163085939 16.58338165283203 6.766683959960938 19.13894500732422 6.766683959960938 21.694508361816407 6.766683959960938 23.472291564941404 8.544467163085939 25.305630493164063 10.377806091308592 25.305630493164063 12.933369445800782 Z"/>
</defs>

<g transform="matrix( 1.499969482421875, 0, 0, 1.499969482421875, 16,16) ">
<g transform="matrix( 1, 0, 0, 1, 0,0) ">
<use xlink:href="#fonts_shape_25012_0_Layer0_0_FILL"/>
</g>
</g>

<g transform="matrix( 1.111114501953125, 0, 0, 1.111114501953125, 0.75,1.1) ">
<use xlink:href="#Layer0_0_MEMBER_1_MEMBER_0_FILL"/>
</g>

<g transform="matrix( 1.111114501953125, 0, 0, 1.111114501953125, 0.75,1.1) ">
<use xlink:href="#Layer0_0_MEMBER_2_FILL"/>

<use xlink:href="#Layer0_0_MEMBER_2_1_STROKES" transform="matrix( 0.899993896484375, 0, 0, 0.899993896484375, -0.65,-1) "/>
</g>
</svg>
