
<svg xmlns="http://www.w3.org/2000/svg" version="1.1" xmlns:xlink="http://www.w3.org/1999/xlink" preserveAspectRatio="none" x="0px" y="0px" width="950px" height="608px" viewBox="0 0 950 608">
<defs>
<filter id="Filter_1" x="-20%" y="-20%" width="140%" height="140%" color-interpolation-filters="sRGB">
<feColorMatrix in="SourceGraphic" type="matrix" values="1 0 0 0 0 0 1 0 0 0 0 0 1 0 0 0 0 0 0.09 0" result="result1"/>
</filter>

<g id="abc_0_Layer0_0_FILL">
<path fill="#00CC00" stroke="none" d="
M -97.15 76.25
Q -106.9 52.4 -122.95 38.75 -157.25 10.05 -210.65 31.9 -244.5 45.8 -264.05 75.4 -281.05 100.4 -280.2 124.75
L -262.9 130.65
Q -250.45 88.5 -214.9 73.95 -192.15 64.6 -172.5 70.15 -147.9 77.5 -136.05 106.5
L -121.45 142
Q -164.3 162.75 -192.8 187.4 -240.6 229.1 -220.15 279 -214.7 292.3 -204.85 301.55 -194.8 310.75 -181.95 315 -169.55 319.05 -155.45 318.65 -141.15 317.9 -126.8 312 -87.5 295.9 -69.7 245.85 -48.75 260.7 -28.05 264.2 -18.8 265.8 -11.85 264.9
L 19.8 220.85
Q 4.7 220.4 -5.35 219.75 -15.85 219 -22 217.1 -43.45 210.35 -51.2 191.35
L -97.15 76.25
M -184.8 246.15
Q -194.8 221.8 -173.7 200.75 -158.65 185.7 -113.8 160.7
L -85.45 231.4
Q -91.45 259.2 -120.2 271 -140.25 279.2 -157.25 272.55 -176.8 265.7 -184.8 246.15
M 331.9 85.95
L 348.1 49.5
Q 311 29.6 266.65 46.9 225.7 62.8 205.6 103.35 182.45 150.3 202.65 202.2 223.05 254.75 263.65 274.9 300.75 294.25 341.25 278.5 367.2 268.4 387.15 246.25 404.9 226 409.25 205.45
L 392.95 195.25
Q 378.95 227.9 346.2 240.65 315 252.8 285.8 236.9 254.45 219.55 237.45 175.85 223.45 139.9 230.05 114.3 236.15 90.95 258 82.45 277.55 74.85 299.3 78.2 300.35 78.25 331.9 85.95
M 135.85 -75.25
L 126.05 -79.15
Q 103.15 -80.45 85.75 -86.35
L 81.6 -75.75
Q 86.55 -71.9 91.75 -67.9 97 -64.1 102.9 -60.25
L 32.7 118.15
Q 45.35 139.25 70.7 149.2 106.4 163.25 136.15 147.55 162.8 133.15 174.45 103.6 184.5 77.95 177.4 55.2 169.4 31.15 144.9 21.45 120.05 11.7 98.5 19.75
L 135.85 -75.25
M 94 31.05
Q 107.8 26.5 126.45 33.85 146.2 41.65 150.7 61.5 154.7 80.1 145.35 103.85 140.95 115 134.25 123.2 127.75 131.35 119.95 136.15 112.1 140.8 103.35 141.4 94.5 142.2 85.25 138.55 67.4 131.55 59.85 117.9
L 94 31.05 Z"/>
</g>
</defs>

<g transform="matrix( 1, 0, 0, 1, 514,325) ">
<g transform="matrix( 1, 0, 0, 1, 0,0) ">
<use filter="url(#Filter_1)" xlink:href="#abc_0_Layer0_0_FILL"/>
</g>
</g>
</svg>
