
<svg xmlns="http://www.w3.org/2000/svg" version="1.1" xmlns:xlink="http://www.w3.org/1999/xlink" preserveAspectRatio="none" x="0px" y="0px" width="950px" height="608px" viewBox="0 0 950 608">
<defs>
<radialGradient id="Gradient_1" gradientUnits="userSpaceOnUse" cx="0" cy="0" r="129.85" fx="0" fy="0" gradientTransform="matrix( 1.0000000000000002, 0, 0, 1.0000000000000002, 187.9,163.3) " spreadMethod="pad">
<stop  offset="0%" stop-color="#FFFFFF"/>

<stop  offset="100%" stop-color="#76B8FC"/>
</radialGradient>

<filter id="Filter_1" x="-20%" y="-20%" width="140%" height="140%" color-interpolation-filters="sRGB">
<feColorMatrix in="SourceGraphic" type="matrix" values="1 0 0 0 0 0 1 0 0 0 0 0 1 0 0 0 0 0 0.08 0" result="result1"/>
</filter>

<g id="lupa_0_Layer0_0_FILL">
<path fill="#0066FF" stroke="none" d="
M 661.95 163.35
L 661.95 163.3
Q 661.95 150.05 652.6 140.7 643.25 131.35 630 131.35
L 369.9 131.35
Q 356.65 131.35 347.3 140.7 346.8 141.2 346.35 141.7 340.05 90.4 302.25 51.65 256.05 4.2 189.75 3.3 123.45 2.4 75.95 48.6 28.45 94.9 27.6 161.15 26.7 227.45 72.95 274.9 119.2 322.4 185.45 323.3 251.75 324.2 299.2 277.95 339.55 238.7 346.3 184.9 346.75 185.4 347.3 185.95 356.65 195.3 369.9 195.3
L 630 195.3
Q 643.25 195.3 652.6 185.95 661.95 176.6 661.95 163.35
M 312.8 134.2
Q 315.85 148.1 315.85 163.25 315.85 216.25 278.4 253.75 240.9 291.25 187.9 291.25 134.9 291.25 97.45 253.75 96.35 252.7 95.35 251.65 59.95 214.8 59.95 163.25 59.95 110.25 97.45 72.8 134.9 35.3 187.9 35.3 240.9 35.3 278.4 72.8 305.1 99.55 312.8 134.2 Z"/>

<path fill="url(#Gradient_1)" stroke="none" d="
M 315.85 163.25
Q 315.85 148.1 312.8 134.2 305.1 99.55 278.4 72.8 240.9 35.3 187.9 35.3 134.9 35.3 97.45 72.8 59.95 110.25 59.95 163.25 59.95 214.8 95.35 251.65 96.35 252.7 97.45 253.75 134.9 291.25 187.9 291.25 240.9 291.25 278.4 253.75 315.85 216.25 315.85 163.25 Z"/>
</g>
</defs>

<g transform="matrix( 0.716522216796875, 0.697540283203125, -0.697540283203125, 0.716522216796875, 602.05,127.75) ">
<g transform="matrix( 1, 0, 0, 1, 0,0) ">
<use filter="url(#Filter_1)" xlink:href="#lupa_0_Layer0_0_FILL"/>
</g>
</g>
</svg>
