
<svg xmlns="http://www.w3.org/2000/svg" version="1.1" xmlns:xlink="http://www.w3.org/1999/xlink" preserveAspectRatio="none" x="0px" y="0px" width="68px" height="68px" viewBox="0 0 68 68">
<defs>
<linearGradient id="Gradient_1" gradientUnits="userSpaceOnUse" x1="66.975" y1="97.17500000000001" x2="22.225" y2="-8.274999999999999" spreadMethod="pad">
<stop  offset="0%" stop-color="#F09122"/>

<stop  offset="100%" stop-color="#DF081F"/>
</linearGradient>

<filter id="Filter_1" x="-21.77315021507964%" y="-21.77315021507964%" width="143.54630043015928%" height="143.54630043015928%" color-interpolation-filters="sRGB">
<feFlood flood-color="#000000" flood-opacity="1" in="SourceGraphic" result="result1"/>

<feComposite in2="SourceGraphic" in="result1" operator="in" result="result2"/>

<feGaussianBlur in="result2" stdDeviation="1.3333333333333333,1.3333333333333333" result="result3"/>

<feOffset dx="2.8284271247461903" dy="2.82842712474619" in="result3" result="result4"/>

<feComposite in2="result4" in="SourceGraphic" operator="over" result="result5"/>
</filter>

<g id="Shapes_icon_ko_0_Layer0_0_FILL">
<path fill="url(#Gradient_1)" stroke="none" d="
M 82.5 82
Q 85.95 77.05 88.7 71.5
L 50.35 43.5 78.3 15.55
Q 80.95 12.5 74.45 8.2
L 67.45 4.5 39.5 34.25 17.85 0.6
Q 14.05 -2.3 9 9.35 6.5 15.2 4.75 21.6
L 26.7 44.4 0.85 71
Q -2.45 74.65 6.95 82.05 11.65 85.75 17 88.7
L 38.9 51.75 72.1 88.7
Q 75.6 91.85 82.5 82 Z"/>
</g>
</defs>

<g filter="url(#Filter_1)" transform="matrix( 1, 0, 0, 1, 0,0) ">
<g transform="matrix( 1, 0, 0, 1, 3,3) ">
<g transform="matrix( 0.6516876220703125, 0, 0, 0.6516876220703125, 0,0) ">
<g transform="matrix( 1.003387451171875, 0, 0, 0.994964599609375, 0,0) ">
<use xlink:href="#Shapes_icon_ko_0_Layer0_0_FILL"/>
</g>
</g>
</g>
</g>
</svg>
