<?xml version="1.0" encoding="utf-8"?>
<!-- Generator: Adobe Illustrator 16.0.0, SVG Export Plug-In . SVG Version: 6.00 Build 0)  -->
<!DOCTYPE svg PUBLIC "-//W3C//DTD SVG 1.1//EN" "http://www.w3.org/Graphics/SVG/1.1/DTD/svg11.dtd">
<svg version="1.1" id="Layer_1" xmlns="http://www.w3.org/2000/svg" xmlns:xlink="http://www.w3.org/1999/xlink" x="0px" y="0px"
	 width="62px" height="62px" viewBox="0 0 62 62" enable-background="new 0 0 62 62" xml:space="preserve">
<g>
	<g id="Capa_1">
		<path fill-rule="evenodd" clip-rule="evenodd" fill="#A0A0A0" d="M44.55,8.5c-0.667,1.167-1.733,2.3-3.2,3.4
			c-2.967,2.233-6.449,3.35-10.449,3.35s-7.5-1.117-10.5-3.35c-1-0.7-1.9-1.5-2.7-2.4l-0.75-1c-2.9,1.967-5.233,4.167-7,6.6
			c1.267,0.867,3.083,1.75,5.45,2.65c4.866,1.767,10.033,2.65,15.5,2.65c5.6,0,10.75-0.933,15.449-2.8
			c2.334-0.9,4.134-1.833,5.4-2.8C50.084,12.567,47.684,10.467,44.55,8.5z M47.55,20.95C42.15,22.917,36.6,23.9,30.9,23.9
			c-5.566,0-11.084-0.933-16.551-2.8c-2.766-0.967-4.916-1.934-6.449-2.9c-1.467,2.633-2.45,5.417-2.95,8.35
			c-0.101,0.7-0.2,1.517-0.3,2.45h52.5c0-1.033-0.101-1.85-0.301-2.45c-0.467-3.033-1.467-5.867-3-8.5
			C52.25,19.05,50.15,20.017,47.55,20.95z M47.65,45.05c-3.634-1.6-7.45-2.583-11.45-2.95c-1.434-0.3-3.2-0.449-5.3-0.449
			c-1.934,0-3.584,0.149-4.95,0.449c-4,0.367-7.866,1.301-11.601,2.801c-1.866,0.8-3.283,1.533-4.25,2.199
			c1.967,2.634,4.301,4.783,7,6.45c0.9-1.167,2.15-2.35,3.75-3.55c3.101-2.233,6.45-3.35,10.051-3.35c4,0,7.533,1.116,10.6,3.35
			c1.533,1.1,2.65,2.233,3.35,3.4c2.734-1.768,5.033-3.867,6.9-6.301C50.75,46.434,49.383,45.75,47.65,45.05z M54.85,42.1
			c1.334-3.033,2.15-6.149,2.45-9.35H4.65c0.199,3.1,1,6.217,2.399,9.35c0.366,0.867,0.7,1.5,1,1.9c0.866-0.6,2.134-1.233,3.8-1.9
			C17.65,39.367,24,38,30.9,38c6.967,0,13.416,1.367,19.35,4.1c1.6,0.566,2.85,1.15,3.75,1.75C54.166,43.45,54.45,42.867,54.85,42.1
			z M61,30.95c0,3.8-0.733,7.517-2.2,11.149c-2.167,5.566-5.783,10.066-10.85,13.5C42.883,59.2,37.2,61,30.9,61
			c-6.234,0-11.884-1.8-16.95-5.4c-5.101-3.434-8.733-7.934-10.9-13.5C1.684,38.566,1,34.85,1,30.95c0-1.467,0.1-2.934,0.3-4.4
			c1.067-7.333,4.384-13.4,9.95-18.2C16.85,3.45,23.4,1,30.9,1c7.533,0,14.083,2.45,19.649,7.35c5.601,4.8,9,10.867,10.2,18.2
			C60.916,28.183,61,29.65,61,30.95z M30.9,11.6c3.333,0,6.083-0.85,8.25-2.55c1-0.767,1.732-1.583,2.199-2.45
			C38.017,5.333,34.533,4.7,30.9,4.7c-3.801,0-7.351,0.733-10.65,2.2l0.6,0.75c0.467,0.567,1.084,1.083,1.851,1.55
			C24.967,10.8,27.7,11.6,30.9,11.6z M30.9,57.35c3.732,0,7.266-0.732,10.6-2.199c-0.467-0.867-1.3-1.684-2.5-2.45
			c-2.334-1.7-5.033-2.55-8.1-2.55c-3,0-5.634,0.85-7.9,2.55c-1.166,0.866-2.033,1.683-2.6,2.45C23.8,56.617,27.3,57.35,30.9,57.35z
			"/>
	</g>
</g>
</svg>
