
<svg xmlns="http://www.w3.org/2000/svg" version="1.1" xmlns:xlink="http://www.w3.org/1999/xlink" preserveAspectRatio="none" x="0px" y="0px" width="32px" height="32px" viewBox="0 0 32 32">
<defs>
<g id="fonts_shape_25012_0_Layer0_0_FILL">
<path fill="#000000" stroke="none" d="
M 10 -5
Q 10 -10 5 -10
L -5 -10
Q -10 -10 -10 -5
L -10 5
Q -10 10 -5 10
L 5 10
Q 10 10 10 5
L 10 -5 Z"/>
</g>

<g id="f5_0_Layer0_1_MEMBER_0_FILL">
<path fill="#FFFFFF" stroke="none" d="
M -3.9 -6.65
L -6.55 -4 3.9 6.45 6.55 3.8 -3.9 -6.65 Z"/>
</g>

<g id="f5_0_Layer0_1_MEMBER_1_FILL">
<path fill="#FFFFFF" stroke="none" d="
M 6.55 -4
L 3.9 -6.65 -6.55 3.8 -3.9 6.45 6.55 -4 Z"/>
</g>
</defs>

<g transform="matrix( 1.499969482421875, 0, 0, 1.499969482421875, 16,16) ">
<g transform="matrix( 1, 0, 0, 1, 0,0) ">
<g transform="matrix( 1, 0, 0, 1, 0,0) ">
<use xlink:href="#fonts_shape_25012_0_Layer0_0_FILL"/>
</g>
</g>

<g transform="matrix( 1, 0, 0, 1, 0,0) ">
<use xlink:href="#f5_0_Layer0_1_MEMBER_0_FILL"/>
</g>

<g transform="matrix( 1, 0, 0, 1, 0,0) ">
<use xlink:href="#f5_0_Layer0_1_MEMBER_1_FILL"/>
</g>
</g>
</svg>
