<?xml version="1.0" encoding="utf-8"?>
<!-- Generator: Adobe Illustrator 16.0.0, SVG Export Plug-In . SVG Version: 6.00 Build 0)  -->
<!DOCTYPE svg PUBLIC "-//W3C//DTD SVG 1.1//EN" "http://www.w3.org/Graphics/SVG/1.1/DTD/svg11.dtd">
<svg version="1.1" id="Layer_1" xmlns="http://www.w3.org/2000/svg" xmlns:xlink="http://www.w3.org/1999/xlink" x="0px" y="0px"
	 width="32px" height="32px" viewBox="0 0 32 32" enable-background="new 0 0 32 32" xml:space="preserve">
<symbol  id="Formas_x2F_icono_x5F_home.ai" viewBox="0 -13.8 17.649 13.8">
	<polygon fill-rule="evenodd" clip-rule="evenodd" fill="#000000" points="17.649,-5.85 14.899,-5.85 14.899,-13.8 10.75,-13.8 
		10.75,-6.2 6.85,-6.2 6.85,-13.8 2.7,-13.8 2.7,-5.85 0,-5.85 8.8,0 	"/>
</symbol>
<symbol  id="Formas_x2F_shape_25012" viewBox="-10 -10 20 20">
	<path fill-rule="evenodd" clip-rule="evenodd" fill="#FFFFFF" d="M5,10c3.333,0,5-1.667,5-5V-5c0-3.333-1.667-5-5-5H-5
		c-3.333,0-5,1.667-5,5V5c0,3.333,1.667,5,5,5H5z"/>
</symbol>
<g>
	<g id="Capa_1">
		
			<use xlink:href="#Formas_x2F_shape_25012"  width="20" height="20" x="-10" y="-10" transform="matrix(1.5 0 0 -1.5 16 16)" overflow="visible"/>
		
			<use xlink:href="#Formas_x2F_icono_x5F_home.ai"  width="17.649" height="13.8" id="XMLID_1_" y="-13.8" transform="matrix(1.3598 0 0 -1.3587 4 6.3501)" overflow="visible"/>
	</g>
</g>
</svg>
