
<svg xmlns="http://www.w3.org/2000/svg" version="1.1" xmlns:xlink="http://www.w3.org/1999/xlink" preserveAspectRatio="none" x="0px" y="0px" width="37px" height="37px" viewBox="0 0 37 37">
<defs>
<g id="Layer7_0_FILL">
<path fill="#1E120D" stroke="none" d="
M 34.65 2.35
Q 33.25 1 31.3 1
L 5.75 1
Q 3.8 1 2.35 2.35 1 3.8 1 5.75
L 1 31.3
Q 1 33.25 2.35 34.65 3.8 36 5.75 36
L 31.3 36
Q 33.25 36 34.65 34.65 36 33.25 36 31.3
L 36 5.75
Q 36 3.8 34.65 2.35 Z"/>
</g>

<g id="Layer4_0_FILL">
<path fill="#FFFFFF" stroke="none" d="
M 13.15 12.3
L 7.5 12.2 7.5 24.6 13.15 24.6 13.15 30.3 29.5 18.45 13.15 6.7 13.15 12.3 Z"/>
</g>
</defs>

<g transform="matrix( 1, 0, 0, 1, 0,0) ">
<use xlink:href="#Layer7_0_FILL"/>
</g>

<g transform="matrix( 1, 0, 0, 1, 0,0) ">
<use xlink:href="#Layer4_0_FILL"/>
</g>
</svg>
