<?xml version="1.0" encoding="utf-8"?>
<!-- Generator: Adobe Illustrator 16.0.0, SVG Export Plug-In . SVG Version: 6.00 Build 0)  -->
<!DOCTYPE svg PUBLIC "-//W3C//DTD SVG 1.1//EN" "http://www.w3.org/Graphics/SVG/1.1/DTD/svg11.dtd">
<svg version="1.1" id="Layer_1" xmlns="http://www.w3.org/2000/svg" xmlns:xlink="http://www.w3.org/1999/xlink" x="0px" y="0px"
	 width="32px" height="32px" viewBox="0 0 32 32" enable-background="new 0 0 32 32" xml:space="preserve">
<symbol  id="Formas_x2F_shape_25012" viewBox="-10 -10 20 20">
	<path fill-rule="evenodd" clip-rule="evenodd" fill="#010101" d="M5,10c3.333,0,5-1.667,5-5V-5c0-3.333-1.667-5-5-5H-5
		c-3.333,0-5,1.667-5,5V5c0,3.333,1.667,5,5,5H5z"/>
</symbol>
<symbol  id="Formas_x2F_shape_25022" viewBox="-7.4 -6.9 12.85 13.8">
	<polygon fill-rule="evenodd" clip-rule="evenodd" fill="#FFFFFF" points="2.15,3.65 5.45,3.7 5.45,-3.55 2.15,-3.55 2.15,-6.9 
		-7.4,0.05 2.15,6.9 	"/>
</symbol>
<g>
	<g id="Capa_1">
		<g>
			
				<use xlink:href="#Formas_x2F_shape_25012"  width="20" height="20" x="-10" y="-10" transform="matrix(1.5 0 0 -1.5 16 16)" overflow="visible"/>
			
				<use xlink:href="#Formas_x2F_shape_25022"  width="12.85" height="13.8" id="XMLID_1_" x="-7.4" y="-6.9" transform="matrix(-1.5 0 0 -1.5 15.0498 16)" overflow="visible"/>
		</g>
	</g>
</g>
</svg>
