
<svg xmlns="http://www.w3.org/2000/svg" version="1.1" xmlns:xlink="http://www.w3.org/1999/xlink" preserveAspectRatio="none" x="0px" y="0px" width="37px" height="37px" viewBox="0 0 37 37">
<defs>
<g id="Layer11_0_FILL">
<path fill="#1E120D" stroke="none" d="
M 34.65 2.35
Q 33.25 1 31.3 1
L 5.75 1
Q 3.8 1 2.35 2.35 1 3.8 1 5.75
L 1 31.3
Q 1 33.25 2.35 34.65 3.8 36 5.75 36
L 31.3 36
Q 33.25 36 34.65 34.65 36 33.25 36 31.3
L 36 5.75
Q 36 3.8 34.65 2.35 Z"/>
</g>

<g id="Layer0_0_FILL">
<path fill="#FFFFFF" stroke="none" d="
M 12.75 7.3
Q 11.95 6.5 10.8 6.5 9.65 6.5 8.85 7.3 8.05 8.1 8.05 9.25
L 8.05 21.25
Q 8.05 22.4 8.85 23.2 9.7 24 10.8 24 11.95 24 12.75 23.2 13.55 22.4 13.55 21.25
L 13.55 9.25
Q 13.55 8.1 12.75 7.3 Z"/>
</g>

<g id="Layer0_1_FILL">
<path fill="#FFFFFF" stroke="none" d="
M 21.75 23.2
Q 22.55 22.4 22.55 21.25
L 22.55 9.25
Q 22.55 8.1 21.75 7.3 20.95 6.5 19.8 6.5 18.65 6.5 17.85 7.3 17.05 8.1 17.05 9.25
L 17.05 21.25
Q 17.05 22.4 17.85 23.2 18.7 24 19.8 24 20.95 24 21.75 23.2 Z"/>
</g>

<path id="Layer0_0_1_STROKES" stroke="#000000" stroke-width="1" stroke-linejoin="miter" stroke-linecap="butt" stroke-miterlimit="10" fill="none" d="
M 15.496075439453126 9.20736083984375
Q 16.433868408203125 10.14515380859375 16.433868408203125 11.493231201171875
L 16.433868408203125 25.560125732421874
Q 16.433868408203125 26.908203124999996 15.496075439453126 27.84599609375 14.558282470703125 28.7837890625 13.210205078125002 28.7837890625 11.92073974609375 28.7837890625 10.924334716796876 27.84599609375 9.986541748046877 26.908203124999996 9.986541748046877 25.560125732421874
L 9.986541748046877 11.493231201171875
Q 9.986541748046877 10.14515380859375 10.924334716796876 9.20736083984375 11.862127685546875 8.26956787109375 13.210205078125002 8.26956787109375 14.558282470703125 8.26956787109375 15.496075439453126 9.20736083984375 Z"/>

<path id="Layer0_1_1_STROKES" stroke="#000000" stroke-width="1" stroke-linejoin="miter" stroke-linecap="butt" stroke-miterlimit="10" fill="none" d="
M 25.496246337890625 27.84599609375
Q 24.558453369140626 28.7837890625 23.2103759765625 28.7837890625 21.92091064453125 28.7837890625 20.924505615234377 27.84599609375 19.986712646484374 26.908203124999996 19.986712646484374 25.560125732421874
L 19.986712646484374 11.493231201171875
Q 19.986712646484374 10.14515380859375 20.924505615234377 9.20736083984375 21.862298583984373 8.26956787109375 23.2103759765625 8.26956787109375 24.558453369140626 8.26956787109375 25.496246337890625 9.20736083984375 26.434039306640624 10.14515380859375 26.434039306640624 11.493231201171875
L 26.434039306640624 25.560125732421874
Q 26.434039306640624 26.908203124999996 25.496246337890625 27.84599609375 Z"/>
</defs>

<g transform="matrix( 1, 0, 0, 1, 0,0) ">
<use xlink:href="#Layer11_0_FILL"/>
</g>

<g transform="matrix( 1.1722412109375, 0, 0, 1.1722412109375, 0.55,0.65) ">
<use xlink:href="#Layer0_0_FILL"/>

<use xlink:href="#Layer0_0_1_STROKES" transform="matrix( 0.8530731201171875, 0, 0, 0.8530731201171875, -0.45,-0.55) "/>
</g>

<g transform="matrix( 1.1722412109375, 0, 0, 1.1722412109375, 0,0.65) ">
<use xlink:href="#Layer0_1_FILL"/>

<use xlink:href="#Layer0_1_1_STROKES" transform="matrix( 0.8530731201171875, 0, 0, 0.8530731201171875, 0,-0.55) "/>
</g>
</svg>
