
<svg xmlns="http://www.w3.org/2000/svg" version="1.1" xmlns:xlink="http://www.w3.org/1999/xlink" preserveAspectRatio="none" x="0px" y="0px" width="37px" height="37px" viewBox="0 0 37 37">
<defs>
<g id="Layer15_0_FILL">
<path fill="#000000" stroke="none" d="
M 30.85 30.85
Q 36 25.75 36 18.5 36 11.25 30.85 6.1 25.75 1 18.5 1 11.25 1 6.1 6.1 1 11.25 1 18.5 1 25.75 6.1 30.85 11.25 36 18.5 36 25.75 36 30.85 30.85 Z"/>
</g>

<g id="Layer13_0_FILL">
<path fill="#FFFFFF" stroke="none" d="
M 12.15 22.75
L 10.3 20.85 9.45 27.55 16.05 26.65 14.25 24.85 16.75 22.3 14.65 20.15 12.15 22.75
M 14.25 12.05
L 16.05 10.3 9.45 9.4 10.3 16.05 12.15 14.2 14.65 16.7 16.75 14.65 14.25 12.05
M 26.75 20.85
L 24.85 22.75 22.45 20.25 20.25 22.35 22.75 24.85 21 26.65 27.55 27.55 26.75 20.85
M 21 10.3
L 22.75 12.05 20.25 14.6 22.45 16.65 24.85 14.2 26.75 16.05 27.55 9.4 21 10.3 Z"/>
</g>
</defs>

<g transform="matrix( 1, 0, 0, 1, 0,0) ">
<use xlink:href="#Layer15_0_FILL"/>
</g>

<g transform="matrix( 1, 0, 0, 1, 0,0) ">
<use xlink:href="#Layer13_0_FILL"/>
</g>
</svg>
