
<svg xmlns="http://www.w3.org/2000/svg" version="1.1" xmlns:xlink="http://www.w3.org/1999/xlink" preserveAspectRatio="none" x="0px" y="0px" width="37px" height="37px" viewBox="0 0 37 37">
<defs>
<g id="Layer7_0_FILL">
<path fill="#FFFFFF" stroke="none" d="
M 34.65 2.35
Q 33.25 1 31.3 1
L 5.75 1
Q 3.8 1 2.35 2.35 1 3.8 1 5.75
L 1 31.3
Q 1 33.25 2.35 34.65 3.8 36 5.75 36
L 31.3 36
Q 33.25 36 34.65 34.65 36 33.25 36 31.3
L 36 5.75
Q 36 3.8 34.65 2.35 Z"/>
</g>

<g id="Layer1_0_FILL">
<path fill="#000000" stroke="none" d="
M 18.5 20.2
L 16.8 20.2 16.8 18.65
Q 16.5 18.2 16.35 17.85
L 7.15 26.95 10.15 30 19.4 20.75
Q 18.9 20.5 18.5 20.2
M 19.95 20.2
L 18.5 20.2
Q 18.9 20.5 19.4 20.75
L 19.95 20.2
M 16.8 17.35
L 16.35 17.85
Q 16.5 18.2 16.8 18.65
L 16.8 17.35 Z"/>
</g>

<path id="Layer1_0_1_STROKES" stroke="#000000" stroke-width="3" stroke-linejoin="round" stroke-linecap="round" fill="none" d="
M 16.35 17.85
Q 15.4 16.3 15.4 14.3 15.4 11.35 17.5 9.2 19.65 7.1 22.65 7.1 25.6 7.1 27.65 9.2 29.8 11.35 29.8 14.3 29.8 17.35 27.65 19.4 25.6 21.5 22.65 21.5 20.9 21.5 19.4 20.75
M 16.8 18.65
Q 17.1 19.05 17.5 19.4 17.95 19.85 18.5 20.2 18.9 20.5 19.4 20.75
M 16.8 18.65
Q 16.5 18.2 16.35 17.85"/>
</defs>

<g transform="matrix( 1, 0, 0, 1, 0,0) ">
<use xlink:href="#Layer7_0_FILL"/>
</g>

<g transform="matrix( 1, 0, 0, 1, 0,0) ">
<use xlink:href="#Layer1_0_FILL"/>

<use xlink:href="#Layer1_0_1_STROKES"/>
</g>
</svg>
