
<svg xmlns="http://www.w3.org/2000/svg" version="1.1" xmlns:xlink="http://www.w3.org/1999/xlink" preserveAspectRatio="none" x="0px" y="0px" width="950px" height="608px" viewBox="0 0 950 608">
<defs>
<filter id="Filter_1" x="-20%" y="-20%" width="140%" height="140%" color-interpolation-filters="sRGB">
<feColorMatrix in="SourceGraphic" type="matrix" values="1 0 0 0 0 0 1 0 0 0 0 0 1 0 0 0 0 0 0.09 0" result="result1"/>
</filter>

<g id="__0_Layer0_0_FILL">
<path fill="#FF0000" stroke="none" d="
M 33.05 168.2
Q 22.5 177.85 22.5 192.5 22.5 225.9 59.1 225.9 75.25 225.9 85.5 216.85 95.75 208.05 95.75 192.5 95.75 176.7 83.15 166.75 71.7 158.25 58.55 158.25 43.6 158.25 33.05 168.2
M -120.95 146.05
Q -118.25 135.85 -110.3 131.9 -104.2 129.2 -93.15 129.5 -82.2 129.5 -76.65 129.55 -71.05 129.55 -70.55 129.5 -59.75 128.45 -57.7 120.7 -56.75 117.2 -56.8 113.55 -56.75 109.85 -57.65 106.35 -58.45 102.9 -59.95 100.15 -61.35 97.4 -63.4 95.65
L -70.6 99.45
Q -65.2 103.85 -66.75 109.8 -67.75 113.45 -76.35 113.7 -80.85 113.5 -85.35 113.5 -89.9 113.55 -94.4 113.4 -124.1 113.5 -132.6 145.2 -137.55 163.7 -127.15 178.5 -116.7 193.6 -96.05 199.1 -79.85 203.45 -68.15 200.2
L -65.3 185.4
Q -75.7 187.35 -91.2 183.2 -105.6 179.35 -114.5 169.1 -124.2 158.2 -120.95 146.05
M -71.95 71.3
Q -73.35 76.6 -70.1 80.65 -67.15 84.4 -62.9 85.55 -58.1 86.85 -53.85 84.55 -49.6 82.35 -48.35 77.6 -45.45 66.85 -57.25 63.7 -62.45 62.3 -66.55 64.35 -70.6 66.3 -71.95 71.3
M -170.6 -36.6
Q -169.5 -34.1 -166.95 -33.5 -164.65 -33.05 -162.65 -33.95 -160.4 -34.95 -159.45 -37.15 -158.55 -39.35 -159.5 -41.6 -161.8 -46.65 -167.35 -44.15 -169.8 -43.05 -170.75 -41 -171.7 -38.95 -170.6 -36.6
M -162.55 -16
Q -164.3 -14.5 -166.1 -13.2 -177.6 -3.75 -170.9 11.2 -167 19.95 -158.25 22.4 -149.45 24.95 -139.7 20.6 -132.05 17.15 -128.55 12.25
L -132.1 5.6
Q -135.55 9.6 -142.85 12.9 -149.65 15.95 -156.35 14.75 -163.55 13.6 -166.1 7.85 -168.25 3.05 -166.45 -1 -164.9 -3.95 -160.55 -7.3 -156.25 -10.75 -154.1 -12.5 -151.95 -14.25 -151.75 -14.45 -147.9 -18.3 -149.55 -21.95 -150.25 -23.6 -151.45 -25 -152.65 -26.45 -154.05 -27.45 -155.45 -28.6 -156.9 -29.15 -158.3 -29.85 -159.7 -29.85
L -161.25 -26.1
Q -157.75 -26.1 -156.5 -23.3 -155.75 -21.55 -159 -18.8 -160.8 -17.45 -162.55 -16
M 64.7 -146.45
Q 109.5 -146.45 143.2 -123.6 179.8 -99.6 179.8 -61.8 179.8 -29.55 159.9 -12.85 144.35 -0.25 112.15 7.65 80.2 16.15 64.1 20.25 48 24.35 46.5 24.95 16.05 36.95 16.05 60.4 16.05 71.2 19 82.05 21.9 92.9 27.2 102 32.15 111.35 38.6 118.4 44.75 125.15 52.1 128.65
L 69.95 111.95
Q 50.9 103.45 50.9 85 50.9 73.55 76.1 67.1 89.3 63.3 102.2 59.8 115.05 56.3 128.25 53.35 214.1 29.9 214.1 -68.5 214.1 -125.35 172.5 -160.8 130.6 -196.25 66.45 -196.25 16.05 -196.25 -15.3 -177.8
L -12.1 -132.7
Q 16.65 -146.45 64.7 -146.45 Z"/>
</g>
</defs>

<g transform="matrix( 0.9764556884765625, 0.2157440185546875, -0.2157440185546875, 0.9764556884765625, 633.2,403) ">
<g transform="matrix( 1, 0, 0, 1, 0,0) ">
<use filter="url(#Filter_1)" xlink:href="#__0_Layer0_0_FILL"/>
</g>
</g>
</svg>
