
<svg xmlns="http://www.w3.org/2000/svg" version="1.1" xmlns:xlink="http://www.w3.org/1999/xlink" preserveAspectRatio="none" x="0px" y="0px" width="68px" height="68px" viewBox="0 0 68 68">
<defs>
<linearGradient id="Gradient_1" gradientUnits="userSpaceOnUse" x1="61.9125" y1="86.36250000000001" x2="36.2875" y2="13.037500000000001" spreadMethod="pad">
<stop  offset="0%" stop-color="#0B6635"/>

<stop  offset="100%" stop-color="#95C030"/>
</linearGradient>

<filter id="Filter_1" x="-21.77315021507964%" y="-21.013592136687404%" width="143.54630043015928%" height="142.02718427337481%" color-interpolation-filters="sRGB">
<feFlood flood-color="#000000" flood-opacity="1" in="SourceGraphic" result="result1"/>

<feComposite in2="SourceGraphic" in="result1" operator="in" result="result2"/>

<feGaussianBlur in="result2" stdDeviation="1.3333333333333333,1.3333333333333333" result="result3"/>

<feOffset dx="2.8284271247461903" dy="2.82842712474619" in="result3" result="result4"/>

<feComposite in2="result4" in="SourceGraphic" operator="over" result="result5"/>
</filter>

<g id="Shapes_icon_ok_0_Layer0_0_FILL">
<path fill="url(#Gradient_1)" stroke="none" d="
M 73.65 0
Q 71.2 1.65 67.45 4.9 59.95 11.3 53.55 18.95 33.1 43.35 31.45 70.65 26.65 66.9 20.4 62.95 7.9 55.05 0.45 54.05
L 0 54.05 3.1 67.55 15.15 75.05
Q 28.9 84.65 37.1 95.05 37.3 91.95 38.3 86.85 40.4 76.6 44.7 66.5 58.45 34.2 89.4 15.55
L 73.65 0 Z"/>
</g>
</defs>

<g filter="url(#Filter_1)" transform="matrix( 1, 0, 0, 1, 0,0) ">
<g transform="matrix( 1, 0, 0, 1, 3,1) ">
<g transform="matrix( 0.6516876220703125, 0, 0, 0.6526336669921875, 0,0) ">
<g transform="matrix( 0.9955291748046875, 0, 0, 0.999481201171875, 0,0) ">
<use xlink:href="#Shapes_icon_ok_0_Layer0_0_FILL"/>
</g>
</g>
</g>
</g>
</svg>
