
<svg xmlns="http://www.w3.org/2000/svg" version="1.1" xmlns:xlink="http://www.w3.org/1999/xlink" preserveAspectRatio="none" x="0px" y="0px" width="64px" height="52px" viewBox="0 0 64 52">
<defs>
<g id="Layer2_0_MEMBER_0_MEMBER_0_FILL">
<path fill="#41A62A" stroke="none" d="
M 373.95 461.5
L 373.05 462.45
Q 372.75 462.7 372.75 463.15 372.75 463.55 373.05 463.85
L 377.65 468.45
Q 377.95 468.7 378.35 468.7 378.75 468.7 379.05 468.45
L 379.95 467.5
Q 380.25 467.25 380.25 466.8 380.25 466.4 379.95 466.1
L 375.35 461.5
Q 375.1 461.25 374.65 461.25 374.25 461.25 373.95 461.5 Z"/>
</g>

<g id="Layer2_0_MEMBER_1_MEMBER_0_FILL">
<path fill="#41A62A" stroke="none" d="
M 386.25 459.85
L 385.35 458.95
Q 385.05 458.65 384.65 458.65 384.2 458.65 383.9 458.95
L 376.8 466.05
Q 376.55 466.3 376.55 466.75 376.55 467.15 376.8 467.45
L 377.75 468.35
Q 378 468.65 378.45 468.65 378.85 468.65 379.15 468.35
L 386.25 461.25
Q 386.55 460.95 386.55 460.55 386.55 460.15 386.25 459.85 Z"/>
</g>
</defs>

<g transform="matrix( 4.1761474609375, 0, 0, 4.17889404296875, -1553.65,-1911.85) ">
<use xlink:href="#Layer2_0_MEMBER_0_MEMBER_0_FILL"/>
</g>

<g transform="matrix( 4.1761474609375, 0, 0, 4.17889404296875, -1553.65,-1911.85) ">
<use xlink:href="#Layer2_0_MEMBER_1_MEMBER_0_FILL"/>
</g>
</svg>
