
<svg xmlns="http://www.w3.org/2000/svg" version="1.1" xmlns:xlink="http://www.w3.org/1999/xlink" preserveAspectRatio="none" x="0px" y="0px" width="64px" height="52px" viewBox="0 0 64 52">
<defs>
<g id="Layer1_0_MEMBER_0_MEMBER_0_MEMBER_0_FILL">
<path fill="#E1001A" stroke="none" d="
M 375.75 344.9
L 374.85 345.8
Q 374.55 346.1 374.55 346.55 374.55 346.95 374.85 347.25
L 381.95 354.35
Q 382.2 354.6 382.65 354.6 383.05 354.6 383.35 354.35
L 384.25 353.45
Q 384.55 353.15 384.55 352.75 384.55 352.3 384.25 352
L 377.15 344.9
Q 376.85 344.6 376.45 344.6 376.05 344.6 375.75 344.9 Z"/>
</g>

<g id="Layer1_0_MEMBER_1_MEMBER_0_MEMBER_0_FILL">
<path fill="#E1001A" stroke="none" d="
M 269.8 145.45
Q 269.5 145.75 269.5 146.2 269.5 146.6 269.8 146.9
L 270.7 147.8
Q 271 148.05 271.4 148.05 271.8 148.05 272.1 147.8
L 279.2 140.7
Q 279.5 140.4 279.5 140 279.5 139.55 279.2 139.25
L 278.3 138.35
Q 278 138.05 277.6 138.05 277.15 138.05 276.9 138.35
L 269.8 145.45 Z"/>
</g>
</defs>

<g transform="matrix( 4.5580291748046875, 0, 0, 4.5576019287109375, -1698,-1567.55) ">
<use xlink:href="#Layer1_0_MEMBER_0_MEMBER_0_MEMBER_0_FILL"/>
</g>

<g transform="matrix( 4.5580291748046875, 0, 0, 4.5576019287109375, -1219.6,-626.15) ">
<use xlink:href="#Layer1_0_MEMBER_1_MEMBER_0_MEMBER_0_FILL"/>
</g>
</svg>
