
<svg xmlns="http://www.w3.org/2000/svg" version="1.1" xmlns:xlink="http://www.w3.org/1999/xlink" preserveAspectRatio="none" x="0px" y="0px" width="28px" height="28px" viewBox="0 0 28 28">
<defs>
<g id="Layer1_0_FILL">
<path fill="#FFFFFF" stroke="none" d="
M 14.75 5.25
Q 10.25 5.25 10.25 9.75
L 10.25 27.2
Q 10.25 31.7 14.75 31.7
L 32.2 31.7
Q 36.7 31.7 36.7 27.2
L 36.7 9.75
Q 36.7 5.25 32.2 5.25
L 14.75 5.25 Z"/>
</g>

<g id="Layer0_0_FILL">
<path fill="#000000" stroke="none" d="
M 34.15 11.8
L 32.7 10.35
Q 32.2 9.9 31.55 9.9 30.85 9.9 30.35 10.35
L 21.4 19.3 16.6 14.5
Q 16.2 14.1 15.45 14.1 14.8 14.1 14.3 14.5
L 12.85 16
Q 12.4 16.4 12.4 17.15 12.4 17.8 12.85 18.25
L 20.3 25.7
Q 20.75 26.1 21.4 26.1 22.05 26.1 22.55 25.7
L 34.15 14.1
Q 34.65 13.6 34.65 12.95 34.65 12.3 34.15 11.8 Z"/>
</g>

<path id="Layer1_0_1_STROKES" stroke="#000000" stroke-width="1" stroke-linejoin="round" stroke-linecap="round" fill="none" d="
M 5.39905014038086 1.0106788635253903
Q 0.9756111145019535 1.0106788635253903 0.9756111145019535 5.4341178894042965
L 0.9756111145019535 22.587231445312497
Q 0.9756111145019535 27.010670471191403 5.39905014038086 27.010670471191403
L 22.552163696289064 27.010670471191403
Q 26.97560272216797 27.010670471191403 26.97560272216797 22.587231445312497
L 26.97560272216797 5.4341178894042965
Q 26.97560272216797 1.0106788635253903 22.552163696289064 1.0106788635253903
L 5.39905014038086 1.0106788635253903 Z"/>
</defs>

<g transform="matrix( 0.9829864501953125, 0, 0, 0.9829864501953125, -9.1,-4.15) ">
<use xlink:href="#Layer1_0_FILL"/>

<use xlink:href="#Layer1_0_1_STROKES" transform="matrix( 1.017303466796875, 0, 0, 1.017303466796875, 9.25,4.2) "/>
</g>

<g transform="matrix( 0.98876953125, 0, 0, 0.9876556396484375, -9.25,-3.8) ">
<use xlink:href="#Layer0_0_FILL"/>
</g>
</svg>
