
<svg xmlns="http://www.w3.org/2000/svg" version="1.1" xmlns:xlink="http://www.w3.org/1999/xlink" preserveAspectRatio="none" x="0px" y="0px" width="36px" height="36px" viewBox="0 0 36 36">
<defs>
<g id="Layer0_0_MEMBER_0_FILL">
<path fill="#FFFFFF" stroke="none" d="
M 393.9 449.9
Q 392.25 448.3 390 448.3
L 370 448.3
Q 367.7 448.3 366.1 449.9 364.5 451.5 364.5 453.8
L 364.5 473.8
Q 364.5 476.1 366.1 477.7 367.7 479.3 370 479.3
L 390 479.3
Q 392.25 479.3 393.9 477.7 395.5 476.1 395.5 473.8
L 395.5 453.8
Q 395.5 451.5 393.9 449.9 Z"/>
</g>

<g id="Layer0_0_MEMBER_1_FILL">
<path fill="#41A62A" stroke="none" d="
M 363 453.8
L 363 473.8
Q 363 476.7 365.05 478.75 367.1 480.8 370 480.8
L 390 480.8
Q 392.9 480.8 394.95 478.75 397 476.7 397 473.8
L 397 453.8
Q 397 450.9 394.95 448.85 392.9 446.8 390 446.8
L 370 446.8
Q 367.1 446.8 365.05 448.85 363 450.9 363 453.8
M 392.85 451
Q 394 452.15 394 453.8
L 394 473.8
Q 394 475.45 392.85 476.65 391.65 477.8 390 477.8
L 370 477.8
Q 368.3 477.8 367.15 476.65 366 475.45 366 473.8
L 366 453.8
Q 366 452.15 367.15 451 368.3 449.8 370 449.8
L 390 449.8
Q 391.65 449.8 392.85 451 Z"/>
</g>

<g id="Layer0_1_MEMBER_0_MEMBER_0_FILL">
<path fill="#41A62A" stroke="none" d="
M 373.95 461.5
L 373.05 462.45
Q 372.75 462.7 372.75 463.15 372.75 463.55 373.05 463.85
L 377.65 468.45
Q 377.95 468.7 378.35 468.7 378.75 468.7 379.05 468.45
L 379.95 467.5
Q 380.25 467.25 380.25 466.8 380.25 466.4 379.95 466.1
L 375.35 461.5
Q 375.1 461.25 374.65 461.25 374.25 461.25 373.95 461.5 Z"/>
</g>

<g id="Layer0_1_MEMBER_1_MEMBER_0_FILL">
<path fill="#41A62A" stroke="none" d="
M 386.25 459.85
L 385.35 458.95
Q 385.05 458.65 384.65 458.65 384.2 458.65 383.9 458.95
L 376.8 466.05
Q 376.55 466.3 376.55 466.75 376.55 467.15 376.8 467.45
L 377.75 468.35
Q 378 468.65 378.45 468.65 378.85 468.65 379.15 468.35
L 386.25 461.25
Q 386.55 460.95 386.55 460.55 386.55 460.15 386.25 459.85 Z"/>
</g>
</defs>

<g transform="matrix( 1, 0, 0, 1, -362,-445.8) ">
<use xlink:href="#Layer0_0_MEMBER_0_FILL"/>
</g>

<g transform="matrix( 1, 0, 0, 1, -362,-445.8) ">
<use xlink:href="#Layer0_0_MEMBER_1_FILL"/>
</g>

<g transform="matrix( 1, 0, 0, 1, -362,-445.8) ">
<use xlink:href="#Layer0_1_MEMBER_0_MEMBER_0_FILL"/>
</g>

<g transform="matrix( 1, 0, 0, 1, -362,-445.8) ">
<use xlink:href="#Layer0_1_MEMBER_1_MEMBER_0_FILL"/>
</g>
</svg>
