
<svg xmlns="http://www.w3.org/2000/svg" version="1.1" xmlns:xlink="http://www.w3.org/1999/xlink" preserveAspectRatio="none" x="0px" y="0px" width="70px" height="70px" viewBox="0 0 70 70">
<defs>
<g id="Layer0_0_MEMBER_0_MEMBER_0_FILL">
<path fill="#FFFFFF" stroke="none" d="
M 290.45 132.65
Q 290.45 130.35 288.85 128.75 287.2 127.15 284.95 127.15
L 264.95 127.15
Q 262.65 127.15 261.05 128.75 259.45 130.35 259.45 132.65
L 259.45 152.65
Q 259.45 154.9 261.05 156.55 262.65 158.15 264.95 158.15
L 284.95 158.15
Q 287.2 158.15 288.85 156.55 290.45 154.9 290.45 152.65
L 290.45 132.65 Z"/>
</g>

<g id="Layer0_0_MEMBER_0_MEMBER_1_MEMBER_0_FILL">
<path fill="#E1001A" stroke="none" d="
M 370 332.2
Q 367.1 332.2 365.05 334.25 363 336.3 363 339.2
L 363 359.2
Q 363 362.1 365.05 364.15 367.1 366.2 370 366.2
L 390 366.2
Q 392.9 366.2 394.95 364.15 397 362.1 397 359.2
L 397 339.2
Q 397 336.3 394.95 334.25 392.9 332.2 390 332.2
L 370 332.2
M 366 339.2
Q 366 337.55 367.15 336.4 368.3 335.2 370 335.2
L 390 335.2
Q 391.65 335.2 392.85 336.4 394 337.55 394 339.2
L 394 359.2
Q 394 360.85 392.85 362.05 391.65 363.2 390 363.2
L 370 363.2
Q 368.3 363.2 367.15 362.05 366 360.85 366 359.2
L 366 339.2 Z"/>
</g>

<g id="Layer0_0_MEMBER_1_MEMBER_0_MEMBER_0_MEMBER_0_FILL">
<path fill="#E1001A" stroke="none" d="
M 375.75 344.9
L 374.85 345.8
Q 374.55 346.1 374.55 346.55 374.55 346.95 374.85 347.25
L 381.95 354.35
Q 382.2 354.6 382.65 354.6 383.05 354.6 383.35 354.35
L 384.25 353.45
Q 384.55 353.15 384.55 352.75 384.55 352.3 384.25 352
L 377.15 344.9
Q 376.85 344.6 376.45 344.6 376.05 344.6 375.75 344.9 Z"/>
</g>

<g id="Layer0_0_MEMBER_1_MEMBER_1_MEMBER_0_MEMBER_0_FILL">
<path fill="#E1001A" stroke="none" d="
M 269.8 145.45
Q 269.5 145.75 269.5 146.2 269.5 146.6 269.8 146.9
L 270.7 147.8
Q 271 148.05 271.4 148.05 271.8 148.05 272.1 147.8
L 279.2 140.7
Q 279.5 140.4 279.5 140 279.5 139.55 279.2 139.25
L 278.3 138.35
Q 278 138.05 277.6 138.05 277.15 138.05 276.9 138.35
L 269.8 145.45 Z"/>
</g>
</defs>

<g transform="matrix( 2, 0, 0, 2, -514.9,-250.3) ">
<use xlink:href="#Layer0_0_MEMBER_0_MEMBER_0_FILL"/>
</g>

<g transform="matrix( 2, 0, 0, 2, -725,-663.4) ">
<use xlink:href="#Layer0_0_MEMBER_0_MEMBER_1_MEMBER_0_FILL"/>
</g>

<g transform="matrix( 2, 0, 0, 2, -725,-664.4) ">
<use xlink:href="#Layer0_0_MEMBER_1_MEMBER_0_MEMBER_0_MEMBER_0_FILL"/>
</g>

<g transform="matrix( 2, 0, 0, 2, -514.9,-251.3) ">
<use xlink:href="#Layer0_0_MEMBER_1_MEMBER_1_MEMBER_0_MEMBER_0_FILL"/>
</g>
</svg>
