
<svg xmlns="http://www.w3.org/2000/svg" version="1.1" xmlns:xlink="http://www.w3.org/1999/xlink" preserveAspectRatio="none" x="0px" y="0px" width="37px" height="37px" viewBox="0 0 37 37">
<defs>
<g id="Layer11_0_FILL">
<path fill="#FFFFFF" stroke="none" d="
M 34.65 2.35
Q 33.25 1 31.3 1
L 5.75 1
Q 3.8 1 2.35 2.35 1 3.8 1 5.75
L 1 31.3
Q 1 33.25 2.35 34.65 3.8 36 5.75 36
L 31.3 36
Q 33.25 36 34.65 34.65 36 33.25 36 31.3
L 36 5.75
Q 36 3.8 34.65 2.35 Z"/>
</g>

<g id="Layer2_0_FILL">
<path fill="#000000" stroke="none" d="
M 28.2 9.1
L 22.8 9.1 22.8 27.95 28.2 27.95 28.2 9.1
M 8.75 27.9
L 21.45 18.55 8.75 9.15 8.75 27.9 Z"/>
</g>
</defs>

<g transform="matrix( 1, 0, 0, 1, 0,0) ">
<use xlink:href="#Layer11_0_FILL"/>
</g>

<g transform="matrix( 1, 0, 0, 1, 0,0) ">
<use xlink:href="#Layer2_0_FILL"/>
</g>
</svg>
